<svg width="157" height="149" viewBox="0 0 157 149" fill="none" xmlns="http://www.w3.org/2000/svg">
<path d="M13.5 43.5L26.55 36V81L58.95 62.25V17.25L72 9.74999V39.75C72 42.35 71.35 45.15 70.05 48.15C68.85 51.15 67.25 53.95 65.25 56.55C63.35 59.05 61.25 60.95 58.95 62.25C62.35 60.25 65.35 60 67.95 61.5C70.65 63 72 65.75 72 69.75V114.75L58.95 122.25V77.25L26.55 96V141L13.5 148.5V43.5ZM58.95 77.25V122.25L45.9 114.75V69.75L58.95 77.25ZM68.1 61.5C65.4 60 62.35 60.25 58.95 62.25L45.9 54.75C49.4 52.75 52.45 52.5 55.05 54L68.1 61.5ZM72 9.74999L58.95 17.25L45.9 9.74999L58.95 2.24999L72 9.74999ZM58.95 17.25V62.25L45.9 54.75V9.74999L58.95 17.25ZM58.95 62.25L26.55 81L13.5 73.5L45.9 54.75L58.95 62.25ZM26.55 36L13.5 43.5L0.45 36L13.5 28.5L26.55 36ZM13.5 43.5V148.5L0.45 141V36L13.5 43.5ZM123.971 103.5C120.571 105.5 117.571 105.75 114.971 104.25C112.371 102.75 111.071 100 111.071 96V141L98.0215 148.5V37.5L143.471 11.25C146.871 9.24999 149.871 8.99999 152.471 10.5C155.171 12 156.521 14.75 156.521 18.75V69.75C156.521 72.35 155.871 75.15 154.571 78.15C153.371 81.15 151.771 83.95 149.771 86.55C147.871 89.05 145.771 90.95 143.471 92.25L123.971 103.5ZM143.471 26.25L111.071 45V96L143.471 77.25V26.25ZM111.071 96C111.071 100 112.371 102.75 114.971 104.25L101.921 96.75C99.3215 95.25 98.0215 92.5 98.0215 88.5L111.071 96ZM143.471 26.25V77.25L130.421 69.75V18.75L143.471 26.25ZM143.471 77.25L111.071 96L98.0215 88.5L130.421 69.75L143.471 77.25ZM152.621 10.5C149.921 8.99999 146.871 9.24999 143.471 11.25L98.0215 37.5L84.9715 30L130.421 3.75C133.921 1.74999 136.971 1.49999 139.571 3L152.621 10.5ZM98.0215 37.5V148.5L84.9715 141V30L98.0215 37.5Z" fill="white"/>
</svg>
